<mxfile host="drawio-plugin" modified="2023-07-10T02:33:12.237Z" agent="5.0 (Macintosh; Intel Mac OS X 10_15_7) AppleWebKit/537.36 (KHTML, like Gecko) Chrome/104.0.5112.102 Safari/537.36" etag="i5MRTL1N5Ou3tRx1vEiZ" version="20.5.3" type="embed" pages="2"><diagram name="hexagonal architecture" id="tGCOuptwTByUr70m_xDe"><mxGraphModel dx="875" dy="474" grid="1" gridSize="10" guides="1" tooltips="1" connect="1" arrows="1" fold="1" page="1" pageScale="1" pageWidth="850" pageHeight="1100" math="0" shadow="0"><root><mxCell id="0"/><mxCell id="1" parent="0"/><mxCell id="4" value="" style="shape=image;verticalLabelPosition=bottom;labelBackgroundColor=default;verticalAlign=top;aspect=fixed;imageAspect=0;image=https://reflectoring.io/images/posts/spring-hexagonal/hexagonal-architecture_hu6764515d7030d45af6f7f498c79e292b_50897_956x0_resize_box_3.png;" parent="1" vertex="1"><mxGeometry x="80" y="30" width="520" height="256" as="geometry"/></mxCell></root></mxGraphModel></diagram><diagram id="yGAgmL_fQND6JjSyOip-" name="use case"><mxGraphModel dx="875" dy="474" grid="1" gridSize="10" guides="1" tooltips="1" connect="1" arrows="1" fold="1" page="1" pageScale="1" pageWidth="850" pageHeight="1100" math="0" shadow="0"><root><mxCell id="0"/><mxCell id="1" parent="0"/><mxCell id="P6QmEgHkzn9MXrV4jRkC-2" style="edgeStyle=orthogonalEdgeStyle;rounded=0;orthogonalLoop=1;jettySize=auto;html=1;" edge="1" parent="1" source="SZS51Va6sfqqcrsHB3tE-1" target="P6QmEgHkzn9MXrV4jRkC-1"><mxGeometry relative="1" as="geometry"/></mxCell><mxCell id="P6QmEgHkzn9MXrV4jRkC-5" style="edgeStyle=orthogonalEdgeStyle;rounded=0;orthogonalLoop=1;jettySize=auto;html=1;" edge="1" parent="1" source="SZS51Va6sfqqcrsHB3tE-1" target="P6QmEgHkzn9MXrV4jRkC-3"><mxGeometry relative="1" as="geometry"/></mxCell><mxCell id="P6QmEgHkzn9MXrV4jRkC-6" style="edgeStyle=orthogonalEdgeStyle;rounded=0;orthogonalLoop=1;jettySize=auto;html=1;" edge="1" parent="1" source="SZS51Va6sfqqcrsHB3tE-1" target="SZS51Va6sfqqcrsHB3tE-2"><mxGeometry relative="1" as="geometry"/></mxCell><mxCell id="SZS51Va6sfqqcrsHB3tE-1" value="Use Case&amp;nbsp;" style="rounded=0;whiteSpace=wrap;html=1;" parent="1" vertex="1"><mxGeometry x="230" y="190" width="120" height="60" as="geometry"/></mxCell><mxCell id="SZS51Va6sfqqcrsHB3tE-2" value="Input Adapter&amp;nbsp;" style="rounded=0;whiteSpace=wrap;html=1;" parent="1" vertex="1"><mxGeometry x="20" y="190" width="120" height="60" as="geometry"/></mxCell><mxCell id="P6QmEgHkzn9MXrV4jRkC-1" value="Output adapter" style="rounded=0;whiteSpace=wrap;html=1;" vertex="1" parent="1"><mxGeometry x="460" y="190" width="120" height="60" as="geometry"/></mxCell><mxCell id="P6QmEgHkzn9MXrV4jRkC-3" value="Domain" style="rounded=0;whiteSpace=wrap;html=1;" vertex="1" parent="1"><mxGeometry x="230" y="60" width="120" height="60" as="geometry"/></mxCell></root></mxGraphModel></diagram></mxfile>